<svg id="visual" viewBox="0 0 1920 1080" width="1920" height="1080" xmlns="http://www.w3.org/2000/svg" xmlns:xlink="http://www.w3.org/1999/xlink" version="1.1"><rect x="0" y="0" width="1920" height="1080" fill="#ffffff"></rect><defs><linearGradient id="grad1_0" x1="43.8%" y1="0%" x2="100%" y2="100%"><stop offset="14.444444444444446%" stop-color="#ffffff" stop-opacity="1"></stop><stop offset="85.55555555555554%" stop-color="#ffffff" stop-opacity="1"></stop></linearGradient></defs><defs><linearGradient id="grad2_0" x1="0%" y1="0%" x2="56.3%" y2="100%"><stop offset="14.444444444444446%" stop-color="#ffffff" stop-opacity="1"></stop><stop offset="85.55555555555554%" stop-color="#ffffff" stop-opacity="1"></stop></linearGradient></defs><g transform="translate(1920, 0)"><path d="M0 432C-49.4 435.2 -98.8 438.3 -133.5 410.9C-168.2 383.4 -188.3 325.3 -205.7 283.2C-223.1 241 -237.7 214.7 -262.9 191C-288.1 167.4 -323.9 146.4 -353.8 115C-383.7 83.6 -407.9 41.8 -432 0L0 0Z" fill="#771dff"></path></g><g transform="translate(0, 1080)"><path d="M0 -432C51.2 -437.4 102.4 -442.7 133.5 -410.9C164.6 -379 175.5 -309.9 196.9 -271C218.3 -232.1 250.3 -223.4 280.7 -204C311.2 -184.5 340.2 -154.4 365.2 -118.7C390.2 -82.9 411.1 -41.4 432 0L0 0Z" fill="#771dff"></path></g></svg>